<?xml version="1.0" encoding="UTF-8" standalone="no"?>
<svg width="17px" height="20px" viewBox="0 0 17 20" version="1.1" xmlns="http://www.w3.org/2000/svg" xmlns:xlink="http://www.w3.org/1999/xlink" xmlns:sketch="http://www.bohemiancoding.com/sketch/ns">
    <title>Finish</title>
    <description>Created with Sketch (http://www.bohemiancoding.com/sketch)</description>
    <defs>
        <path d="M15.5726744,12.1801897 L12.2493023,8.01394828 L15.5625581,4.249 C15.6487209,4.15137931 15.6668605,4.01575862 15.6093023,3.90110345 C15.5517442,3.78612069 15.4286047,3.71274138 15.2936047,3.71274138 L9.80813953,3.71274138 L9.80813953,2.55996552 C9.80813953,2.39027586 9.67034884,2.24908621 9.49069767,2.23368966 L1.74023256,1.57851724 C1.7255814,1.5772069 1.71232558,1.58212069 1.69767442,1.58277586 L1.69767442,1 L1,1 L1,19.4696379 L1.69767442,19.4696379 L1.69767442,11.6324655 L9.11046512,11.0133276 L9.11046512,12.3764138 C9.11046512,12.557569 9.26674419,12.7043276 9.45930233,12.7043276 L15.2936047,12.7043276 C15.425814,12.7043276 15.5465116,12.6342241 15.605814,12.5231724 C15.6647674,12.4121207 15.6522093,12.2794483 15.5726744,12.1801897 L15.5726744,12.1801897 Z M1.69767442,2.23303448 L9.11046512,2.85937931 L9.11046512,10.3555345 L1.69767442,10.9746724 L1.69767442,2.23303448 L1.69767442,2.23303448 Z M9.80813953,12.0491552 L9.80813953,4.36791379 L14.5526744,4.36791379 L11.5362791,7.79544828 C11.4337209,7.91206897 11.4295349,8.07946552 11.5261628,8.20067241 L14.5966279,12.0491552 L9.80813953,12.0491552 L9.80813953,12.0491552 Z" id="path-1"></path>
    </defs>
    <g id="Page-1" stroke="none" stroke-width="1" fill="none" fill-rule="evenodd" sketch:type="MSPage">
        <g id="Imported-Layers">
            <use stroke="#7ED321" stroke-width="1" fill="none" sketch:type="MSShapeGroup" xlink:href="#path-1"></use>
            <use stroke="none" fill="#9B9B9B" fill-rule="evenodd" xlink:href="#path-1"></use>
        </g>
    </g>
</svg>