<?xml version="1.0" encoding="UTF-8" standalone="no"?>
<svg width="99px" height="72px" viewBox="0 0 99 72" version="1.1" xmlns="http://www.w3.org/2000/svg" xmlns:xlink="http://www.w3.org/1999/xlink" xmlns:sketch="http://www.bohemiancoding.com/sketch/ns">
    <title>Photo Template</title>
    <description>Created with Sketch (http://www.bohemiancoding.com/sketch)</description>
    <defs></defs>
    <g id="Page-1" stroke="none" stroke-width="1" fill="none" fill-rule="evenodd" sketch:type="MSPage">
        <g id="Imported-Layers" sketch:type="MSLayerGroup" transform="translate(0.000000, 1.000000)" fill="#4A4A4A">
            <path d="M89.6053571,8.65139024 L85.9321429,8.65139024 L85.9321429,5.47856098 L78.7892857,5.47856098 L78.7892857,8.65139024 L74.2071429,8.65139024 C73.0071429,7.28753659 66.3875,-0.0106829268 61.9160714,-0.0106829268 L36.9410714,-0.0106829268 C32.4696429,-0.0106829268 25.8482143,7.28753659 24.6482143,8.65139024 L9.25,8.65139024 C4.31964286,8.65139024 0.321428571,12.6396829 0.321428571,17.5538293 L0.321428571,62.0553415 C0.321428571,66.9730488 4.31964286,70.959561 9.25,70.959561 L89.6053571,70.959561 C94.5375,70.959561 98.5339286,66.9730488 98.5339286,62.0553415 L98.5339286,17.5538293 C98.5339286,12.6396829 94.5375,8.65139024 89.6053571,8.65139024 L89.6053571,8.65139024 Z M94.9625,62.0553415 C94.9625,65.0020488 92.5589286,67.3968049 89.6053571,67.3968049 L9.25,67.3968049 C6.29464286,67.3968049 3.89285714,65.0020488 3.89285714,62.0553415 L3.89285714,17.5538293 C3.89285714,14.6089024 6.29464286,12.2123659 9.25,12.2123659 L26.2660714,12.2123659 L27.3339286,10.9998537 C31.3767857,6.39907317 35.4678571,3.55029268 36.9410714,3.55029268 L61.9160714,3.55029268 C63.3857143,3.55029268 67.4767857,6.39907317 71.5214286,10.9998537 L72.5875,12.2123659 L89.6053571,12.2123659 C92.5589286,12.2123659 94.9625,14.6089024 94.9625,17.5538293 L94.9625,62.0553415 L94.9625,62.0553415 Z" id="Fill-1" sketch:type="MSShapeGroup"></path>
            <path d="M49.3964286,15.687878 C37.55,15.687878 27.9482143,25.2597805 27.9482143,37.0715366 C27.9482143,48.8815122 37.55,58.4569756 49.3964286,58.4569756 C61.2410714,58.4569756 70.8446429,48.8815122 70.8446429,37.0715366 C70.8446429,25.2597805 61.2410714,15.687878 49.3964286,15.687878 L49.3964286,15.687878 Z M49.3964286,54.896 C39.5392857,54.896 31.5196429,46.8998293 31.5196429,37.0715366 C31.5196429,27.2432439 39.5392857,19.2488537 49.3964286,19.2488537 C59.2535714,19.2488537 67.2732143,27.2432439 67.2732143,37.0715366 C67.2732143,46.8998293 59.2535714,54.896 49.3964286,54.896 L49.3964286,54.896 Z" id="Fill-2" sketch:type="MSShapeGroup"></path>
            <path d="M14.1821429,5.47856098 C21.075,5.47856098 21.7946429,5.47856098 21.7946429,3.55029268 C21.7946429,1.6202439 20.9285714,1.6202439 14.1821429,1.6202439 C7.4375,1.6202439 6.57142857,1.6202439 6.57142857,3.55029268 C6.57142857,5.47856098 7.29107143,5.47856098 14.1821429,5.47856098" id="Fill-3" sketch:type="MSShapeGroup"></path>
            <path d="M16.2892857,21.0293415 C13.3303571,21.0293415 10.9321429,23.4187561 10.9321429,26.3708049 C10.9321429,29.3192927 13.3303571,31.7122683 16.2892857,31.7122683 C19.2464286,31.7122683 21.6464286,29.3192927 21.6464286,26.3708049 C21.6464286,23.4187561 19.2464286,21.0293415 16.2892857,21.0293415" id="Fill-4" sketch:type="MSShapeGroup"></path>
            <path d="M49.3964286,28.1690976 C44.4732143,28.1690976 40.4678571,32.1627317 40.4678571,37.0715366 C40.4678571,41.9803415 44.4732143,45.9739756 49.3964286,45.9739756 C54.3196429,45.9739756 58.325,41.9803415 58.325,37.0715366 C58.325,32.1627317 54.3196429,28.1690976 49.3964286,28.1690976 L49.3964286,28.1690976 Z M49.3964286,42.413 C46.4428571,42.413 44.0392857,40.0182439 44.0392857,37.0715366 C44.0392857,34.1266098 46.4428571,31.7300732 49.3964286,31.7300732 C52.35,31.7300732 54.7535714,34.1266098 54.7535714,37.0715366 C54.7535714,40.0182439 52.35,42.413 49.3964286,42.413 L49.3964286,42.413 Z" id="Fill-5" sketch:type="MSShapeGroup"></path>
        </g>
    </g>
</svg>