<?xml version="1.0" encoding="UTF-8" standalone="no"?>
<svg width="58px" height="41px" viewBox="0 0 58 41" version="1.1" xmlns="http://www.w3.org/2000/svg" xmlns:xlink="http://www.w3.org/1999/xlink" xmlns:sketch="http://www.bohemiancoding.com/sketch/ns">
    <!-- Generator: Sketch 3.0.4 (8053) - http://www.bohemiancoding.com/sketch -->
    <title>credit-card-front</title>
    <desc>Created with Sketch.</desc>
    <defs></defs>
    <g id="Welcome" stroke="none" stroke-width="1" fill="none" fill-rule="evenodd" sketch:type="MSPage">
        <g id="Desktop" sketch:type="MSArtboardGroup" transform="translate(-643.000000, -124.000000)" fill="#4990E2">
            <g id="credit-card-front" sketch:type="MSLayerGroup" transform="translate(644.000000, 124.000000)">
                <path d="M50.862,0.038 L5.913,0.038 C2.604,0.038 -0.087,2.729 -0.087,6.038 L-0.087,34.73 C-0.087,38.039 2.604,40.73 5.913,40.73 L50.862,40.73 C54.171,40.73 56.862,38.039 56.862,34.73 L56.862,6.038 C56.862,2.729 54.171,0.038 50.862,0.038 L50.862,0.038 Z M54.862,34.73 C54.862,36.936 53.068,38.73 50.862,38.73 L5.913,38.73 C3.707,38.73 1.913,36.936 1.913,34.73 L1.913,6.038 C1.913,3.832 3.707,2.038 5.913,2.038 L50.862,2.038 C53.068,2.038 54.862,3.832 54.862,6.038 L54.862,34.73 L54.862,34.73 Z" id="Shape" sketch:type="MSShapeGroup"></path>
                <rect id="Rectangle-path" sketch:type="MSShapeGroup" x="7" y="7" width="22.897" height="3.75"></rect>
                <rect id="Rectangle-path" sketch:type="MSShapeGroup" x="40" y="27" width="10.58" height="7.795"></rect>
                <rect id="Rectangle-path" sketch:type="MSShapeGroup" x="7" y="19" width="39.182" height="2"></rect>
                <rect id="Rectangle-path" sketch:type="MSShapeGroup" x="7" y="27" width="20.182" height="2"></rect>
                <rect id="Rectangle-path" sketch:type="MSShapeGroup" x="7" y="31" width="11.182" height="2"></rect>
            </g>
        </g>
    </g>
</svg>