<?xml version="1.0" encoding="UTF-8" standalone="no"?>
<svg width="56px" height="41px" viewBox="0 0 56 41" version="1.1" xmlns="http://www.w3.org/2000/svg" xmlns:xlink="http://www.w3.org/1999/xlink" xmlns:sketch="http://www.bohemiancoding.com/sketch/ns">
    <!-- Generator: Sketch 3.0.4 (8053) - http://www.bohemiancoding.com/sketch -->
    <title>photo-camera</title>
    <desc>Created with Sketch.</desc>
    <defs></defs>
    <g id="Welcome" stroke="none" stroke-width="1" fill="none" fill-rule="evenodd" sketch:type="MSPage">
        <g id="Desktop" sketch:type="MSArtboardGroup" transform="translate(-99.000000, -124.000000)" fill="#4990E2">
            <g id="photo-camera" sketch:type="MSLayerGroup" transform="translate(99.000000, 125.000000)">
                <path d="M50.179,4.859 L48.122,4.859 L48.122,3.077 L46.122,3.077 L44.122,3.077 L44.122,4.859 L41.556,4.859 C40.884,4.092 37.177,-0.006 34.673,-0.006 L20.687,-0.006 C18.183,-0.006 14.475,4.093 13.803,4.859 L5.18,4.859 C2.419,4.859 0.18,7.098 0.18,9.859 L0.18,34.853 C0.18,37.615 2.419,39.853 5.18,39.853 L50.179,39.853 C52.941,39.853 55.179,37.615 55.179,34.853 L55.179,9.859 C55.179,7.099 52.94,4.859 50.179,4.859 L50.179,4.859 Z M53.179,34.854 C53.179,36.508 51.833,37.854 50.179,37.854 L5.18,37.854 C3.526,37.854 2.18,36.508 2.18,34.854 L2.18,9.86 C2.18,8.206 3.526,6.86 5.18,6.86 L13.803,6.86 L14.709,6.86 L15.307,6.178 C17.572,3.594 19.863,1.994 20.687,1.994 L34.673,1.994 C35.496,1.994 37.787,3.594 40.052,6.178 L40.65,6.86 L41.556,6.86 L50.179,6.86 C51.833,6.86 53.179,8.206 53.179,9.86 L53.179,34.854 L53.179,34.854 Z" id="Shape" sketch:type="MSShapeGroup"></path>
                <path d="M27.662,8.811 C21.028,8.811 15.651,14.188 15.651,20.822 C15.651,27.455 21.028,32.833 27.662,32.833 C34.295,32.833 39.673,27.455 39.673,20.822 C39.673,14.188 34.295,8.811 27.662,8.811 L27.662,8.811 Z M27.662,30.832 C22.141,30.832 17.651,26.341 17.651,20.821 C17.651,15.3 22.141,10.81 27.662,10.81 C33.182,10.81 37.673,15.3 37.673,20.821 C37.673,26.341 33.182,30.832 27.662,30.832 L27.662,30.832 Z" id="Shape" sketch:type="MSShapeGroup"></path>
                <path d="M7.942,3.077 C11.801,3.077 12.205,3.077 12.205,1.994 C12.205,0.91 11.72,0.91 7.942,0.91 C4.164,0.91 3.679,0.91 3.679,1.994 C3.68,3.077 4.083,3.077 7.942,3.077 L7.942,3.077 Z" id="Shape" sketch:type="MSShapeGroup"></path>
                <circle id="Oval" sketch:type="MSShapeGroup" cx="9" cy="15" r="3"></circle>
                <path d="M27.662,15.821 C24.905,15.821 22.662,18.064 22.662,20.821 C22.662,23.578 24.905,25.821 27.662,25.821 C30.419,25.821 32.662,23.578 32.662,20.821 C32.662,18.064 30.419,15.821 27.662,15.821 L27.662,15.821 Z M27.662,23.821 C26.008,23.821 24.662,22.475 24.662,20.821 C24.662,19.167 26.008,17.821 27.662,17.821 C29.316,17.821 30.662,19.167 30.662,20.821 C30.662,22.475 29.316,23.821 27.662,23.821 L27.662,23.821 Z" id="Shape" sketch:type="MSShapeGroup"></path>
            </g>
        </g>
    </g>
</svg>