<?xml version="1.0" encoding="UTF-8" standalone="no"?>
<svg width="57px" height="57px" viewBox="0 0 57 57" version="1.1" xmlns="http://www.w3.org/2000/svg" xmlns:xlink="http://www.w3.org/1999/xlink" xmlns:sketch="http://www.bohemiancoding.com/sketch/ns">
    <!-- Generator: Sketch 3.0.4 (8053) - http://www.bohemiancoding.com/sketch -->
    <title>tag-2</title>
    <desc>Created with Sketch.</desc>
    <defs></defs>
    <g id="Welcome" stroke="none" stroke-width="1" fill="none" fill-rule="evenodd" sketch:type="MSPage">
        <g id="Desktop" sketch:type="MSArtboardGroup" transform="translate(-457.000000, -116.000000)" fill="#4990E2">
            <g id="tag-2" sketch:type="MSLayerGroup" transform="translate(458.000000, 117.000000)">
                <path d="M54.062,1.904 C54.007,1.446 53.647,1.085 53.189,1.03 C53.093,1.018 43.51,-0.129 36.491,-0.129 C30.777,-0.129 29.298,0.619 28.648,1.269 L1.753,28.162 C0.349,29.566 -0.425,31.433 -0.425,33.42 C-0.425,35.406 0.348,37.274 1.753,38.678 L15.473,52.399 C17.135,54.061 19.701,55.093 22.17,55.093 C24.098,55.093 25.733,54.476 26.9,53.309 L53.794,26.417 C56.446,23.765 54.669,6.984 54.062,1.904 L54.062,1.904 Z M52.379,25.002 L25.485,51.894 C24.495,52.885 23.135,53.092 22.169,53.092 C20.241,53.092 18.168,52.264 16.886,50.984 L3.166,37.263 C2.14,36.237 1.574,34.871 1.574,33.419 C1.574,31.967 2.139,30.602 3.166,29.575 L30.061,2.681 C30.197,2.545 31.143,1.869 36.49,1.869 C42.231,1.869 49.752,2.654 52.167,2.924 C53.289,12.69 53.686,23.696 52.379,25.002 L52.379,25.002 Z" id="Shape" sketch:type="MSShapeGroup"></path>
                <path d="M42.635,6.954 C39.957,6.954 37.779,9.133 37.779,11.811 C37.779,14.49 39.958,16.669 42.635,16.669 C45.314,16.669 47.493,14.49 47.493,11.811 C47.494,9.133 45.314,6.954 42.635,6.954 L42.635,6.954 Z M42.635,14.669 C41.06,14.669 39.779,13.387 39.779,11.811 C39.779,10.235 41.06,8.954 42.635,8.954 C44.211,8.954 45.493,10.236 45.493,11.811 C45.493,13.386 44.211,14.669 42.635,14.669 L42.635,14.669 Z" id="Shape" sketch:type="MSShapeGroup"></path>
                <rect id="Rectangle-path" sketch:type="MSShapeGroup" transform="translate(19.390050, 24.737350) rotate(225.000000) translate(-19.390050, -24.737350) " x="18.3900596" y="11.2374795" width="1.99998082" height="27.0297408"></rect>
                <rect id="Rectangle-path" sketch:type="MSShapeGroup" transform="translate(20.229250, 31.804750) rotate(225.000000) translate(-20.229250, -31.804750) " x="19.2292596" y="22.3048411" width="1.99998082" height="18.9408184"></rect>
            </g>
        </g>
    </g>
</svg>