<?xml version="1.0" encoding="UTF-8" standalone="no"?>
<svg width="57px" height="42px" viewBox="0 0 57 42" version="1.1" xmlns="http://www.w3.org/2000/svg" xmlns:xlink="http://www.w3.org/1999/xlink" xmlns:sketch="http://www.bohemiancoding.com/sketch/ns">
    <!-- Generator: Sketch 3.0.4 (8053) - http://www.bohemiancoding.com/sketch -->
    <title>Shape</title>
    <desc>Created with Sketch.</desc>
    <defs></defs>
    <g id="Welcome" stroke="none" stroke-width="1" fill="none" fill-rule="evenodd" sketch:type="MSPage">
        <g id="Desktop" sketch:type="MSArtboardGroup" transform="translate(-850.000000, -124.000000)" fill="#4990E2">
            <path d="M904.243,156.084 C903.47,153.513 901.169,152.171 901.169,152.171 C901.169,152.171 894.335,150.426 892.032,149.375 C891.327,149.054 890.813,148.468 890.436,147.809 C893.762,145.502 896.034,140.869 896.034,134.937 C896.034,126.326 891.259,124 885.366,124 C879.473,124 874.688,126.325 874.688,134.937 C874.688,140.851 876.939,145.464 880.249,147.778 C879.872,148.452 879.351,149.051 878.635,149.376 C878.234,149.559 877.69,149.764 877.074,149.976 C876.489,149.299 875.896,148.943 875.896,148.943 C875.896,148.943 871.157,147.732 869.56,147.004 C869.071,146.782 868.714,146.375 868.453,145.918 C870.761,144.319 872.335,141.106 872.335,136.991 C872.335,131.018 869.024,129.405 864.938,129.405 C860.852,129.405 857.531,131.018 857.531,136.991 C857.531,141.093 859.093,144.292 861.389,145.895 C861.126,146.363 860.766,146.779 860.269,147.003 C858.671,147.732 853.933,148.942 853.933,148.942 C853.933,148.942 852.335,149.874 851.8,151.657 C851.304,153.316 850.279,154.751 850,155.124 C851.923,157.019 858.444,157.967 864.958,157.967 C865.205,157.967 865.451,157.957 865.698,157.954 C864.976,159.494 864.122,160.694 863.829,161.084 C866.6,163.816 876.006,165.184 885.397,165.184 C894.758,165.184 904.106,163.827 906.87,161.108 C906.491,160.623 904.968,158.521 904.243,156.084 L904.243,156.084 Z M852.785,154.451 C853.13,153.805 853.472,153.047 853.715,152.231 C853.929,151.517 854.49,151.009 854.773,150.79 C855.97,150.478 859.595,149.508 861.091,148.825 C861.931,148.445 862.618,147.789 863.132,146.874 L864.021,145.293 L862.535,144.255 C860.654,142.941 859.531,140.225 859.531,136.989 C859.531,132.969 861.048,131.403 864.938,131.403 C868.822,131.403 870.335,132.969 870.335,136.989 C870.335,140.239 869.206,142.962 867.314,144.272 L865.806,145.317 L866.718,146.91 C867.23,147.805 867.909,148.449 868.73,148.821 C870.133,149.462 873.362,150.342 874.763,150.712 C872.189,151.483 869.499,152.171 869.499,152.171 C869.499,152.171 867.291,153.469 866.478,155.944 C865.984,155.958 865.479,155.965 864.957,155.965 C859.327,155.966 854.991,155.272 852.785,154.451 L852.785,154.451 Z M885.398,163.183 C876.329,163.183 869.613,161.954 866.594,160.531 C867.205,159.502 867.897,158.141 868.34,156.66 C868.757,155.267 869.88,154.345 870.322,154.025 C871.835,153.632 877.285,152.189 879.46,151.197 C880.498,150.727 881.351,149.906 881.994,148.755 L882.878,147.176 L881.395,146.139 C878.449,144.079 876.689,139.892 876.689,134.938 C876.689,128.674 879.285,126.001 885.367,126.001 C891.443,126.001 894.035,128.674 894.035,134.938 C894.035,139.912 892.264,144.11 889.298,146.167 L887.791,147.212 L888.701,148.804 C889.345,149.928 890.186,150.734 891.203,151.197 C893.38,152.191 898.828,153.634 900.344,154.026 C900.797,154.353 901.911,155.274 902.327,156.656 C902.775,158.166 903.479,159.539 904.093,160.56 C901.076,161.967 894.403,163.183 885.398,163.183 L885.398,163.183 Z" id="Shape" sketch:type="MSShapeGroup"></path>
        </g>
    </g>
</svg>